<svg width="42" height="42" viewBox="0 0 42 42" fill="none" xmlns="http://www.w3.org/2000/svg">
<path d="M16.7623 19.415L2.2059 33.9715C0.598034 35.5793 0.598034 38.1863 2.2059 39.7941C3.81374 41.402 6.4206 41.402 8.02846 39.7941L22.5849 25.2378" stroke="#3A3A3A" stroke-width="2" stroke-linecap="round" stroke-linejoin="round"/>
<path d="M31.4656 25.9876L39.4495 33.9715C41.0574 35.5792 41.0574 38.1862 39.4495 39.794C37.8417 41.402 35.2347 41.402 33.627 39.794L20.8462 27.0134" stroke="#3A3A3A" stroke-width="2" stroke-linecap="round" stroke-linejoin="round"/>
<path d="M9.93259 9.73386L5.56566 11.1895L1.19873 3.9113L4.11001 1L11.3882 5.36693L9.93259 9.73386ZM9.93259 9.73386L15.7589 15.5602" stroke="#3A3A3A" stroke-width="2" stroke-linecap="round" stroke-linejoin="round"/>
<path d="M17.0167 19.225C15.2797 14.7929 15.6193 8.97737 19.2003 5.39643C22.7812 1.81547 29.3897 1.0295 33.0289 3.21296L26.7693 9.47246L26.1876 15.8768L32.5918 15.295L38.8514 9.03552C41.035 12.6746 40.249 19.2833 36.6681 22.8642C33.0869 26.4451 27.2716 26.7848 22.8395 25.0475" stroke="#3A3A3A" stroke-width="2" stroke-linecap="round" stroke-linejoin="round"/>
</svg>
